<svg xmlns="http://www.w3.org/2000/svg" viewBox="578 286 1664 1536"><path fill="#000" transform="translate(1102 898) scale(0.1 -0.1)" d="M1807 6073 c-5 -4 -39 -11 -75 -15 -37 -3 -87 -11 -112 -18 -25 -6 -65 -15 -90 -19 -56 -10 -207 -61 -280 -94 -30 -14 -71 -32 -90 -40 -19 -9 -46 -22 -60 -30 -14 -8 -45 -24 -70 -36 -117 -57 -341 -232 -410 -321 -19 -25 -41 -51 -48 -59 -60 -63 -252 -395 -252 -437 0 -8 -12 -50 -26 -92 -15 -42 -31 -99 -37 -127 -15 -73 -14 -430 2 -485 7 -25 16 -65 20 -90 4 -25 16 -65 25 -90 10 -25 29 -76 42 -114 38 -105 124 -262 173 -314 14 -15 42 -47 61 -72 67 -86 231 -240 318 -299 48 -32 103 -72 122 -89 29 -26 208 -135 513 -315 37 -22 82 -45 100 -51 17 -6 52 -23 77 -38 25 -14 77 -41 115 -58 271 -124 295 -138 295 -170 0 -35 -56 -209 -93 -291 -14 -30 -38 -85 -55 -124 -16 -38 -37 -88 -47 -110 -9 -22 -25 -65 -35 -95 -10 -30 -26 -73 -35 -95 -10 -22 -31 -71 -47 -110 -43 -100 -105 -238 -145 -325 -19 -41 -48 -113 -63 -160 -15 -47 -44 -119 -63 -160 -38 -82 -83 -185 -116 -267 -12 -29 -30 -74 -40 -100 -11 -27 -25 -62 -31 -80 -19 -51 -78 -103 -117 -103 -51 0 -203 82 -266 143 -12 12 -42 38 -67 57 -58 45 -175 163 -220 220 -19 25 -41 51 -48 59 -47 48 -154 229 -238 401 -32 63 -63 126 -71 140 -31 57 -119 252 -128 288 -9 32 -54 82 -74 82 -61 0 -73 -75 -72 -482 1 -126 1 -331 2 -458 0 -126 0 -251 -1 -277 -3 -147 3 -160 103 -207 107 -51 295 -136 351 -160 60 -26 363 -126 381 -126 9 0 39 -12 68 -27 29 -14 68 -30 87 -34 42 -10 111 -26 165 -40 22 -6 60 -14 85 -19 25 -5 65 -14 90 -20 86 -21 208 -43 345 -62 104 -14 729 -14 820 0 39 6 94 16 123 21 28 6 73 15 100 20 60 11 269 81 347 116 256 116 391 198 485 294 19 20 55 52 80 71 149 115 318 369 377 565 12 39 29 95 39 125 49 158 52 484 5 665 -5 22 -14 58 -19 80 -8 36 -20 71 -56 160 -18 48 -136 242 -165 273 -14 15 -42 47 -61 72 -51 66 -92 100 -120 100 -15 0 -40 14 -61 33 -19 17 -54 48 -79 67 -25 19 -47 37 -50 40 -46 53 -356 253 -517 333 -50 26 -113 60 -139 77 -26 16 -55 30 -64 30 -36 0 -54 36 -41 83 18 64 64 190 111 307 12 30 35 89 50 130 15 41 37 99 49 128 12 28 30 76 42 105 25 62 67 174 119 317 119 327 114 301 68 395 -29 58 -37 67 -70 76 -27 7 -38 15 -38 28 0 44 -50 35 -67 -12 -6 -17 -25 -70 -43 -117 -17 -47 -49 -132 -70 -190 -21 -58 -48 -130 -60 -160 -24 -61 -67 -173 -100 -265 -19 -54 -34 -90 -101 -243 -11 -23 -19 -51 -19 -62 0 -18 -9 -42 -67 -169 -13 -30 -31 -75 -40 -100 -19 -56 -30 -71 -54 -71 -22 0 -232 103 -305 150 -26 16 -54 30 -61 30 -8 0 -62 32 -121 72 -59 40 -147 94 -197 122 -185 101 -211 116 -240 142 -16 14 -55 43 -86 65 -31 21 -72 57 -90 81 -19 24 -61 70 -94 104 -93 94 -117 125 -151 184 -17 30 -50 89 -73 130 -23 41 -46 79 -52 85 -20 20 -11 102 13 117 21 14 22 18 10 50 -21 61 -16 352 8 418 11 30 20 67 20 82 0 15 13 48 29 75 15 26 43 74 62 107 70 121 194 228 359 311 97 49 125 60 195 76 22 6 58 14 80 20 22 6 63 15 90 21 64 14 442 14 520 0 33 -6 83 -15 110 -20 28 -4 64 -16 82 -25 18 -9 41 -17 53 -17 11 0 56 -18 100 -40 44 -22 85 -40 92 -40 7 0 24 -10 38 -23 14 -12 45 -38 70 -57 161 -126 279 -277 346 -445 25 -61 77 -203 110 -298 19 -54 46 -121 59 -147 14 -27 25 -59 25 -70 0 -12 7 -34 15 -49 8 -16 22 -48 31 -72 43 -116 100 -276 140 -392 25 -71 54 -147 65 -168 11 -22 33 -79 48 -127 16 -48 40 -112 54 -142 48 -106 59 -136 118 -312 32 -98 68 -196 79 -217 11 -22 30 -70 44 -108 13 -37 34 -93 46 -123 12 -30 38 -99 56 -153 19 -54 48 -125 64 -157 16 -32 40 -89 54 -127 13 -37 34 -93 46 -123 12 -30 39 -102 60 -160 52 -143 94 -254 120 -320 12 -30 33 -86 46 -123 14 -38 33 -86 44 -107 20 -39 34 -76 76 -193 14 -38 34 -87 45 -108 11 -22 33 -80 49 -129 16 -49 38 -107 49 -129 28 -54 51 -121 51 -150 0 -13 9 -53 21 -90 11 -36 25 -80 30 -97 21 -70 11 -228 -17 -269 -57 -84 -94 -105 -259 -146 -22 -6 -54 -15 -71 -20 -17 -5 -62 -9 -101 -9 -97 0 -137 -26 -141 -91 -4 -65 2 -67 183 -74 244 -9 1536 -8 1655 2 105 8 105 8 123 47 18 39 18 39 -8 66 -26 28 -43 33 -155 48 -72 10 -151 53 -235 126 -16 15 -44 36 -62 48 -59 41 -246 361 -307 525 -8 21 -24 63 -36 93 -12 30 -35 89 -50 130 -15 41 -38 100 -50 130 -12 30 -28 72 -36 93 -8 22 -24 57 -35 79 -11 22 -29 66 -39 98 -10 32 -28 76 -39 98 -11 22 -27 57 -35 79 -8 21 -24 63 -36 93 -12 30 -40 103 -61 163 -21 59 -57 155 -78 215 -21 59 -49 132 -61 162 -12 30 -33 86 -46 123 -13 37 -40 99 -59 137 -19 38 -35 78 -35 89 0 11 -8 40 -19 63 -67 153 -82 189 -101 243 -41 113 -50 137 -75 185 -14 27 -25 59 -25 70 0 11 -22 65 -50 120 -28 55 -50 109 -50 120 0 12 -9 38 -20 60 -11 22 -20 48 -20 59 0 11 -8 40 -19 63 -10 24 -28 64 -40 91 -11 26 -21 56 -21 67 0 11 -9 39 -19 62 -10 24 -29 68 -41 98 -21 51 -54 131 -95 225 -9 22 -25 65 -35 95 -10 30 -25 71 -33 90 -14 33 -23 55 -78 193 -12 28 -34 81 -49 117 -16 36 -34 80 -40 98 -9 23 -21 34 -44 40 -33 9 -65 57 -66 100 0 12 -14 49 -30 82 -31 62 -37 107 -20 141 8 14 7 27 -4 48 -9 16 -26 60 -40 97 -71 201 -69 199 -111 197 -28 -2 -47 4 -74 25 -49 38 -174 112 -189 112 -7 0 -35 11 -62 25 -65 33 -236 94 -375 134 -38 11 -95 27 -125 37 -30 9 -76 21 -102 25 -27 5 -72 14 -100 20 -29 6 -91 14 -138 19 -47 5 -110 14 -140 20 -30 7 -129 16 -220 21 -91 5 -199 11 -240 14 -41 4 -79 3 -83 -2z m682 -3625 c20 -7 74 -38 121 -69 47 -31 105 -66 130 -79 57 -29 182 -113 212 -143 13 -12 52 -45 88 -72 186 -141 350 -393 382 -590 21 -122 9 -414 -19 -500 -31 -91 -129 -251 -199 -321 -80 -81 -369 -254 -424 -254 -12 0 -35 -8 -53 -17 -32 -17 -65 -24 -202 -45 -92 -14 -483 -14 -560 0 -183 33 -234 46 -272 65 -18 9 -40 17 -51 17 -62 0 -49 85 57 348 51 128 64 159 75 187 6 17 18 42 27 55 8 14 21 45 29 70 7 25 24 66 37 92 12 25 29 64 37 85 8 21 28 74 44 118 16 44 39 104 51 133 27 68 56 139 82 205 11 28 30 77 40 107 20 56 59 146 110 258 16 34 29 71 29 82 0 11 23 65 50 120 28 55 50 108 50 118 0 42 57 55 129 30z"/><path fill="#000" transform="translate(578 1284) scale(0.1 -0.1)" d="M590 2461 c-114 -40 -193 -78 -225 -108 -11 -10 -40 -34 -65 -53 -164 -126 -214 -233 -214 -460 0 -310 104 -444 519 -667 11 -6 45 -21 75 -33 95 -38 183 -80 255 -122 39 -23 94 -55 123 -72 141 -81 234 -213 234 -326 -2 -210 -111 -337 -327 -382 -96 -20 -317 -11 -425 17 -55 14 -175 108 -178 140 -2 16 -16 45 -32 65 -15 19 -38 55 -50 80 -12 25 -30 56 -40 70 -9 14 -25 51 -35 84 -63 205 -171 156 -161 -73 19 -414 16 -407 173 -465 21 -8 63 -23 93 -35 30 -12 63 -21 73 -21 10 0 32 -8 50 -17 55 -29 125 -36 347 -36 333 0 474 39 630 173 19 17 49 40 65 51 111 78 232 346 222 493 -10 145 -45 260 -99 327 -41 50 -323 234 -453 294 -564 263 -658 326 -670 453 -16 177 -16 260 -1 289 33 64 138 153 179 153 11 0 47 9 79 21 169 60 438 -21 546 -165 41 -54 82 -127 82 -147 0 -6 8 -23 19 -37 10 -15 21 -39 25 -54 13 -55 66 -77 98 -40 30 33 40 240 21 412 l-8 75 -56 -3 c-46 -3 -67 2 -115 25 -56 28 -98 42 -189 64 -22 6 -51 14 -65 19 -73 24 -88 29 -121 39 -83 26 -265 12 -379 -28z"/><path fill="#000" transform="translate(774 1280) scale(0.1 -0.1)" d="M93 2408 c-14 -17 -22 -78 -33 -248 -5 -74 -12 -160 -15 -190 -15 -130 102 -175 132 -51 28 117 140 252 234 283 114 36 444 51 472 20 19 -21 20 -1700 1 -1842 -15 -110 -112 -200 -217 -200 -72 0 -115 -63 -70 -102 43 -36 88 -39 468 -34 465 6 537 11 561 37 35 39 5 57 -131 76 -43 6 -75 27 -75 51 0 7 -8 26 -19 40 -66 95 -61 10 -61 1040 0 787 2 931 14 941 17 15 339 10 404 -6 88 -21 241 -157 242 -215 1 -21 73 -151 91 -161 24 -15 64 0 77 28 16 36 16 347 0 392 -10 26 -10 41 0 65 20 55 -9 72 -149 84 -43 4 -65 1 -90 -12 -81 -44 -431 -44 -474 -1 -15 15 -28 18 -69 13 -97 -12 -251 -26 -278 -25 -83 2 -258 -1 -361 -6 -104 -6 -124 -4 -177 15 -52 18 -74 21 -158 16 -128 -8 -175 -8 -248 -1 -44 5 -63 3 -71 -7z"/><path fill="#000" transform="translate(1020 1284) scale(0.1 -0.1)" d="M51 2426 c-27 -32 12 -86 63 -86 35 0 101 -38 126 -74 40 -56 53 -153 52 -398 0 -115 -1 -225 -1 -245 0 -238 19 -910 27 -948 15 -72 29 -126 39 -155 12 -36 99 -180 131 -215 64 -72 242 -185 292 -185 11 0 37 -8 58 -18 20 -10 57 -24 82 -31 25 -7 59 -17 76 -22 39 -12 468 -12 508 0 279 83 358 124 481 246 144 145 199 256 257 520 7 31 14 282 18 665 4 363 10 631 16 655 24 91 85 172 148 195 95 34 130 66 106 95 -11 13 -24 15 -64 10 -44 -6 -99 -7 -236 -6 -49 0 -127 1 -177 1 -27 0 -82 -2 -123 -6 -49 -4 -87 -1 -113 7 -35 11 -40 11 -60 -9 -29 -30 10 -72 84 -92 58 -16 151 -99 164 -147 25 -91 39 -1201 17 -1348 -54 -366 -240 -535 -632 -575 -47 -5 -104 -12 -127 -15 -37 -6 -44 -4 -69 24 -16 18 -37 31 -51 31 -33 0 -192 82 -227 116 -59 60 -143 249 -159 359 -18 131 -20 1349 -2 1403 31 90 104 162 166 162 34 0 94 41 94 64 0 32 -28 41 -74 26 -34 -11 -48 -11 -80 0 -23 7 -53 10 -73 6 -18 -4 -45 -7 -60 -6 -30 2 -130 1 -435 -2 -104 -1 -197 1 -209 6 -14 5 -24 3 -33 -8z"/><path fill="#000" transform="translate(1298 1280) scale(0.1 -0.1)" d="M57 2402 c-9 -10 -17 -25 -17 -32 0 -23 52 -70 77 -70 63 0 155 -71 169 -130 11 -50 10 -1817 -2 -1860 -17 -65 -89 -130 -144 -130 -83 0 -127 -89 -60 -122 52 -25 1655 -27 1716 -2 64 26 78 71 104 314 5 47 14 114 20 150 26 153 26 147 -14 166 -43 21 -57 12 -77 -48 -11 -37 -71 -140 -125 -216 -20 -29 -190 -142 -213 -142 -9 0 -27 -9 -41 -20 -19 -15 -41 -20 -97 -20 -54 0 -84 -6 -118 -22 -45 -22 -45 -22 -90 0 -56 27 -95 28 -125 2 -25 -22 -57 -25 -104 -10 -17 5 -43 12 -59 15 -39 8 -87 54 -103 100 -20 59 -20 847 0 864 17 15 400 10 463 -6 86 -21 139 -75 169 -173 35 -112 97 -122 119 -20 14 61 17 580 4 596 -36 44 -88 14 -138 -81 -59 -111 -62 -112 -381 -144 -47 -5 -97 -12 -112 -16 -38 -10 -113 20 -127 51 -16 36 -15 816 1 832 15 15 545 17 592 2 17 -5 53 -15 80 -22 73 -19 154 -103 212 -221 51 -100 56 -107 95 -107 48 0 50 11 47 265 l-3 237 -530 -1 c-455 -1 -533 1 -549 14 -25 19 -43 19 -63 0 -13 -13 -44 -15 -212 -12 -175 4 -231 9 -321 32 -18 5 -31 1 -43 -13z"/><path fill="#000" transform="translate(1526 1280) scale(0.1 -0.1)" d="M53 2389 c-31 -31 -1 -89 46 -89 26 0 112 -42 130 -63 52 -63 51 -50 51 -1043 l0 -922 -43 -42 c-42 -42 -100 -70 -147 -70 -33 0 -50 -17 -50 -51 0 -58 32 -62 420 -61 468 1 520 8 520 67 0 37 -23 49 -65 34 -42 -16 -111 4 -129 37 -6 10 -19 32 -30 47 -52 79 -56 112 -56 428 0 230 3 299 13 307 7 6 80 13 167 16 454 14 643 71 818 245 155 154 210 286 212 511 1 190 -101 420 -187 420 -13 0 -51 21 -85 46 -96 70 -154 97 -248 114 -25 5 -65 14 -90 20 -91 24 -236 32 -710 39 -267 4 -494 10 -505 14 -12 5 -25 3 -32 -4z m972 -147 c235 -34 344 -118 410 -315 36 -109 30 -340 -13 -472 -49 -155 -222 -295 -363 -295 -46 0 -68 -5 -90 -21 -24 -17 -38 -20 -72 -15 -23 4 -69 10 -102 14 -99 12 -96 -6 -91 535 2 248 5 463 6 477 1 14 -1 37 -5 53 -14 52 4 59 134 53 64 -2 148 -9 186 -14z"/><path fill="#000" transform="translate(1740 1280) scale(0.1 -0.1)" d="M73 2389 c-32 -32 0 -89 49 -89 30 0 93 -41 128 -82 24 -30 40 -168 40 -360 0 -21 0 -65 0 -98 6 -372 1 -1406 -6 -1443 -14 -73 -114 -157 -187 -157 -44 0 -76 -62 -44 -88 21 -17 124 -24 367 -23 410 1 545 9 566 32 27 30 8 53 -52 61 -82 11 -117 22 -128 43 -6 11 -23 36 -37 55 -39 52 -42 77 -46 419 -4 353 -5 347 61 336 98 -17 349 -6 501 23 272 51 511 241 587 466 63 185 45 457 -38 584 -25 38 -106 112 -123 112 -9 0 -48 20 -88 44 -63 38 -232 100 -398 145 -26 8 -223 12 -570 14 -292 2 -539 7 -550 11 -12 4 -25 2 -32 -5z m1086 -171 c146 -49 228 -135 286 -300 17 -50 21 -351 5 -402 -5 -17 -15 -53 -22 -80 -23 -85 -144 -195 -267 -241 -23 -8 -60 -23 -83 -32 -24 -9 -86 -20 -138 -24 -52 -4 -109 -10 -126 -14 -85 -19 -106 34 -104 255 5 584 12 835 21 847 21 25 347 18 428 -9z"/><path fill="#000" transform="translate(2000 1282) scale(0.1 -0.1)" d="M840 2360 c-19 -11 -50 -19 -68 -20 -86 -1 -218 -115 -287 -249 -91 -177 -70 -440 47 -604 59 -83 59 -104 2 -132 -49 -24 -134 -85 -134 -96 0 -5 -18 -18 -40 -29 -69 -35 -191 -168 -226 -246 -18 -38 -40 -87 -50 -109 -15 -33 -33 -146 -34 -215 -3 -133 63 -282 173 -392 64 -64 183 -148 209 -148 5 0 23 -8 41 -17 138 -72 457 -71 622 2 22 9 67 29 100 44 32 14 92 50 133 78 132 95 137 95 224 10 171 -167 180 -170 468 -170 252 0 295 6 333 41 50 47 17 107 -47 84 -50 -18 -70 -15 -99 18 -15 17 -32 30 -38 30 -11 0 -87 50 -111 73 -7 7 -33 28 -58 47 -56 43 -76 63 -120 120 -19 24 -59 69 -87 99 -68 70 -69 64 44 238 53 81 128 197 167 257 84 130 176 226 254 265 133 67 125 105 -20 96 -134 -8 -410 -8 -521 0 -96 7 -117 0 -117 -41 0 -24 29 -45 82 -58 115 -27 152 -168 82 -309 -118 -236 -146 -260 -211 -181 -21 26 -60 70 -88 98 -27 28 -66 71 -85 96 -19 25 -46 56 -60 70 -14 14 -41 45 -60 70 -19 25 -54 64 -77 87 -49 50 -103 126 -103 146 0 8 24 29 53 45 333 190 469 407 410 657 -24 102 -110 205 -170 205 -19 0 -47 7 -62 15 -75 38 -115 45 -276 44 -138 0 -165 -2 -195 -19z m274 -134 c97 -34 146 -122 146 -263 0 -158 -17 -188 -204 -362 -20 -19 -36 -38 -36 -42 0 -15 -60 -40 -79 -34 -11 3 -24 20 -31 38 -13 36 -52 119 -73 157 -84 148 -81 342 5 451 52 65 173 90 272 55z m-345 -1093 c37 -38 89 -97 116 -133 27 -36 70 -85 95 -110 25 -25 61 -65 80 -90 19 -25 37 -47 40 -50 3 -3 21 -25 40 -50 19 -25 46 -56 60 -70 52 -50 120 -149 120 -173 0 -27 -151 -143 -199 -153 -34 -7 -91 -21 -140 -35 -21 -6 -56 -9 -77 -6 -90 13 -138 25 -142 36 -2 6 -29 25 -61 40 -187 95 -313 358 -264 556 22 91 114 232 181 278 58 41 77 36 151 -40z"/><path fill="#000" transform="translate(640 1600) scale(0.1 -0.1)" d="M1255 2430 c-11 -5 -32 -11 -46 -14 -18 -4 -30 -16 -39 -38 -6 -18 -24 -62 -40 -98 -15 -36 -37 -87 -48 -115 -39 -98 -65 -161 -92 -225 -26 -61 -36 -86 -91 -222 -12 -29 -38 -91 -60 -138 -21 -47 -47 -110 -58 -140 -10 -30 -29 -80 -41 -110 -12 -30 -31 -80 -41 -110 -11 -30 -33 -85 -50 -122 -16 -38 -42 -98 -58 -135 -16 -38 -36 -86 -46 -108 -9 -22 -30 -78 -45 -125 -15 -47 -44 -119 -63 -160 -19 -41 -47 -102 -62 -135 -61 -136 -160 -235 -235 -235 -69 0 -124 -77 -85 -120 26 -29 74 -33 375 -32 398 0 450 8 450 67 0 35 -20 45 -92 45 -74 0 -128 19 -128 46 0 8 -9 32 -20 54 -13 26 -20 59 -20 96 0 68 4 84 80 294 93 256 45 230 414 225 451 -5 445 -4 485 -98 48 -108 54 -124 82 -209 15 -48 37 -105 48 -127 85 -166 69 -212 -96 -267 -72 -24 -99 -70 -60 -102 45 -37 888 -32 929 5 53 48 5 108 -87 108 -91 0 -104 15 -177 200 -11 28 -31 75 -45 105 -14 30 -42 107 -63 171 -22 65 -58 155 -80 200 -23 45 -50 107 -60 138 -10 31 -25 72 -33 91 -8 19 -25 60 -37 90 -12 30 -35 84 -50 120 -15 36 -38 90 -50 120 -12 30 -31 74 -41 98 -10 23 -19 52 -19 63 0 11 -16 52 -36 91 -20 39 -44 97 -54 128 -10 32 -28 76 -39 98 -11 22 -31 71 -45 109 -13 37 -33 92 -45 121 -43 107 -61 153 -81 204 -37 98 -117 136 -205 98z m-67 -598 c7 -5 21 -32 32 -60 11 -29 29 -76 41 -104 12 -29 34 -87 49 -128 15 -41 37 -99 49 -127 12 -29 30 -77 42 -105 60 -149 80 -219 69 -233 -9 -10 -52 -15 -168 -19 -87 -3 -210 -8 -275 -11 -135 -7 -147 -2 -147 54 0 34 10 67 61 194 26 66 74 191 105 280 14 38 33 86 44 107 11 22 27 61 36 87 23 69 35 81 62 65z"/><path fill="#000" transform="translate(918 1600) scale(0.1 -0.1)" d="M56 2402 c-16 -19 -14 -41 9 -69 1 -2 32 -14 70 -28 79 -28 108 -52 141 -117 24 -47 24 -47 24 -945 0 -737 -3 -905 -14 -938 -16 -46 -64 -92 -103 -100 -108 -23 -143 -43 -143 -85 0 -67 38 -73 450 -72 468 0 510 6 510 72 0 38 -22 54 -63 46 -29 -5 -39 -1 -69 26 -20 18 -51 42 -69 53 -49 29 -52 54 -56 464 -4 408 -7 391 69 391 112 0 210 -85 298 -260 18 -36 45 -83 60 -105 15 -22 59 -92 97 -155 38 -63 94 -155 124 -203 87 -143 230 -278 324 -305 78 -22 112 -25 285 -25 207 0 239 5 277 45 28 29 28 29 -8 62 -20 19 -60 41 -95 51 -74 23 -132 62 -175 117 -19 24 -45 54 -60 68 -35 34 -191 255 -219 310 -13 25 -48 79 -80 120 -31 41 -70 96 -87 121 -17 25 -59 74 -92 109 -83 87 -77 144 18 166 125 30 321 212 370 346 7 18 21 52 32 76 50 112 16 377 -61 473 -50 61 -59 69 -80 69 -10 0 -55 23 -100 50 -45 28 -86 50 -91 50 -5 0 -33 12 -62 26 -107 55 -229 82 -432 96 -115 8 -539 12 -792 8 -32 0 -87 2 -123 5 -57 6 -68 4 -84 -13z m1080 -159 c138 -34 234 -128 289 -285 40 -116 14 -416 -42 -481 -133 -156 -200 -184 -455 -194 -207 -7 -188 -56 -188 490 0 356 3 466 12 475 15 15 318 11 384 -5z"/><path fill="#000" transform="translate(1168 1600) scale(0.1 -0.1)" d="M1152 2412 c-12 -8 -34 -58 -78 -185 -14 -38 -33 -86 -44 -107 -11 -21 -30 -69 -44 -107 -13 -37 -34 -93 -46 -123 -12 -30 -28 -72 -36 -93 -8 -22 -24 -57 -35 -79 -11 -22 -29 -66 -39 -98 -10 -32 -28 -76 -39 -98 -21 -41 -35 -77 -77 -195 -13 -38 -38 -96 -55 -129 -17 -34 -39 -87 -49 -118 -10 -32 -28 -76 -39 -98 -11 -22 -36 -84 -55 -139 -52 -148 -63 -178 -99 -251 -19 -37 -41 -93 -51 -124 -44 -143 -136 -245 -247 -271 -106 -26 -105 -125 1 -142 105 -17 683 -3 707 17 19 16 16 72 -5 91 -12 11 -37 17 -73 17 -97 1 -169 77 -169 180 0 30 17 83 88 285 6 17 18 55 27 85 9 30 26 75 38 100 l22 45 365 3 c394 2 419 -1 436 -56 3 -9 14 -38 25 -64 37 -94 62 -154 81 -203 11 -27 29 -70 41 -95 31 -70 57 -143 57 -163 0 -49 -50 -97 -101 -97 -45 0 -139 -61 -139 -90 0 -55 53 -63 440 -62 494 1 560 8 560 62 0 33 -78 90 -123 90 -75 0 -173 130 -227 301 -10 31 -26 71 -34 88 -9 16 -16 39 -16 51 0 11 -21 61 -46 111 -25 50 -58 131 -74 179 -16 49 -40 111 -54 139 -15 28 -26 60 -26 71 0 11 -11 43 -25 70 -13 27 -31 66 -39 87 -8 21 -28 74 -44 118 -16 44 -40 105 -52 135 -12 30 -28 72 -36 93 -8 21 -32 73 -54 117 -22 44 -51 110 -64 147 -13 37 -33 92 -45 121 -11 28 -30 75 -41 102 -11 28 -29 73 -40 100 -11 28 -29 73 -40 101 -25 67 -17 63 -133 70 -56 3 -111 9 -122 13 -11 3 -26 3 -33 -2z m42 -637 c32 -67 57 -128 92 -228 14 -38 33 -86 44 -107 11 -21 30 -69 44 -107 13 -37 38 -108 56 -156 24 -68 29 -91 20 -102 -14 -16 -112 -24 -401 -31 -243 -6 -246 -5 -212 74 36 83 61 145 83 207 33 92 76 204 99 263 12 28 30 76 42 105 12 28 26 66 33 83 30 82 60 81 100 -1z"/><path fill="#000" transform="translate(1428 1606) scale(0.1 -0.1)" d="M1516 3008 c-12 -7 -51 -9 -108 -5 l-89 6 -44 -57 c-48 -61 -115 -169 -115 -183 0 -5 -20 -28 -44 -52 -65 -61 -73 -127 -18 -135 41 -6 306 142 397 222 17 15 44 36 60 47 68 48 78 87 34 142 -22 29 -43 33 -73 15z M53 2469 c-36 -36 -6 -78 69 -100 73 -21 122 -73 141 -152 7 -26 13 -312 18 -747 3 -395 11 -731 16 -765 49 -286 284 -538 568 -607 245 -59 486 -66 673 -19 23 6 59 15 80 20 127 31 285 119 330 185 12 17 38 50 58 71 113 124 185 290 216 500 6 39 14 297 19 575 11 718 19 802 76 870 25 31 110 80 136 80 22 0 49 36 45 62 -3 22 -6 23 -88 20 -47 -2 -98 -8 -113 -14 -20 -8 -35 -8 -53 1 -16 7 -99 11 -234 11 -136 0 -218 4 -234 11 -31 14 -56 -2 -56 -36 0 -30 24 -48 90 -69 143 -44 178 -105 193 -331 13 -204 12 -1097 -1 -1170 -34 -193 -99 -335 -196 -427 -37 -36 -236 -138 -269 -138 -13 0 -44 -14 -70 -30 -51 -32 -179 -43 -251 -21 -17 5 -51 15 -76 22 -110 31 -251 121 -270 173 -6 17 -27 65 -47 106 -40 86 -71 172 -86 245 -6 30 -12 312 -14 720 -4 713 -4 711 44 786 22 34 37 43 161 95 27 12 33 19 30 40 -3 26 -3 26 -428 27 -234 1 -434 6 -445 10 -13 5 -25 3 -32 -4z"/><path fill="#000" transform="translate(1702 1632) scale(0.1 -0.1)" d="M427 2723 c-23 -22 9 -83 44 -83 34 -1 114 -56 136 -95 57 -101 58 -121 44 -1327 0 -21 -1 -68 -1 -105 -2 -247 -19 -675 -28 -708 -6 -22 -14 -53 -18 -68 -7 -30 -128 -157 -149 -157 -28 0 -75 117 -75 186 0 73 -48 100 -193 111 -79 5 -88 0 -123 -69 -64 -126 16 -293 167 -348 68 -25 241 -28 307 -5 239 83 394 249 484 518 74 222 72 196 68 1167 0 66 -1 147 -1 180 0 33 0 162 -1 288 0 125 3 247 7 272 11 76 103 160 175 160 46 0 80 32 63 58 -8 13 -22 16 -64 14 -79 -5 -281 -3 -463 3 -111 4 -168 2 -188 -6 -20 -8 -36 -8 -55 -1 -37 14 -128 24 -136 15z"/><path fill="#000" transform="translate(1864 1606) scale(0.1 -0.1)" d="M1000 2480 c-13 -11 -30 -20 -38 -20 -17 0 -26 -2 -182 -51 -103 -33 -175 -77 -330 -204 -151 -124 -276 -315 -352 -539 -61 -180 -70 -522 -19 -721 5 -22 14 -58 20 -80 17 -74 30 -108 56 -146 14 -21 25 -43 25 -49 0 -23 152 -234 205 -284 83 -79 336 -227 435 -255 52 -14 88 -27 145 -49 109 -43 509 -45 673 -3 23 6 59 15 80 20 20 4 62 19 92 33 183 85 242 114 262 132 13 12 43 37 68 56 57 44 96 83 140 140 19 25 44 55 55 68 26 30 125 191 125 203 0 5 8 22 17 36 22 33 43 87 79 203 47 152 50 503 6 685 -50 207 -172 409 -327 544 -67 59 -132 101 -154 101 -12 0 -57 18 -101 40 -44 22 -85 40 -91 40 -6 0 -23 8 -37 18 -24 16 -58 29 -132 47 -14 4 -43 11 -65 17 -153 38 -616 52 -655 18z m455 -137 c113 -28 236 -97 317 -176 191 -188 261 -313 330 -592 35 -141 35 -428 -1 -602 -6 -29 -15 -74 -20 -100 -21 -106 -29 -131 -66 -203 -68 -135 -125 -201 -259 -297 -115 -83 -243 -121 -426 -124 -153 -2 -377 92 -497 208 -101 99 -225 316 -255 448 -5 22 -14 58 -19 80 -26 99 -32 176 -32 405 -1 161 3 260 11 288 7 23 16 59 20 80 5 20 16 51 25 69 9 18 17 41 17 51 0 92 245 363 370 411 19 7 57 21 85 32 27 10 63 19 80 19 16 0 37 5 45 10 18 12 218 7 275 -7z"/><path fill="#000" transform="translate(812 1820) scale(0.1 -0.1)" d="M411 993 c-12 -14 -24 -38 -28 -52 -3 -14 -26 -66 -50 -115 -25 -49 -53 -115 -63 -145 -10 -31 -33 -90 -53 -131 -19 -41 -49 -109 -67 -150 -18 -41 -41 -95 -53 -120 -66 -148 -73 -201 -27 -225 67 -35 127 -9 156 68 42 112 55 141 66 149 7 4 95 8 194 8 201 0 196 2 222 -69 8 -20 20 -51 27 -70 23 -61 71 -101 122 -101 104 0 131 55 73 147 -16 26 -30 55 -30 66 0 34 -50 166 -101 269 -28 56 -59 127 -69 157 -10 31 -29 81 -43 111 -14 30 -35 79 -48 107 -47 109 -176 163 -228 96z"/><path fill="#000" transform="translate(958 1820) scale(0.1 -0.1)" d="M180 1010 c-8 -6 -32 -7 -53 -4 -32 5 -43 2 -63 -17 -24 -22 -24 -22 -24 -459 0 -542 -26 -490 245 -490 104 0 202 4 219 9 17 6 57 17 88 26 194 56 328 249 328 475 0 157 -33 235 -120 280 -19 11 -51 33 -70 50 -44 39 -122 80 -153 80 -13 0 -44 14 -70 30 -47 29 -50 30 -180 30 -73 0 -139 -5 -147 -10z m319 -186 c98 -34 141 -66 174 -129 102 -199 2 -449 -193 -479 -115 -18 -201 -18 -221 0 -23 21 -30 589 -7 612 18 18 193 15 247 -4z"/><path fill="#000" transform="translate(1090 1820) scale(0.1 -0.1)" d="M57 1002 c-24 -26 -22 -105 4 -172 12 -30 27 -72 35 -93 8 -21 28 -66 45 -99 17 -34 39 -86 49 -117 10 -31 29 -81 43 -111 14 -30 34 -79 46 -107 46 -115 64 -159 77 -191 28 -65 165 -101 206 -54 24 26 87 158 108 221 10 31 29 81 43 111 33 73 80 182 107 250 12 30 48 110 81 178 83 173 80 185 -47 180 l-78 -3 -44 -90 c-24 -49 -57 -130 -74 -180 -16 -49 -42 -110 -59 -136 -16 -25 -39 -76 -50 -113 -42 -134 -77 -129 -124 21 -16 48 -41 114 -57 145 -15 32 -28 65 -28 75 0 27 -26 96 -66 176 -39 77 -48 86 -79 87 -11 0 -31 9 -45 20 -32 25 -72 25 -93 2z"/><path fill="#000" transform="translate(1226 1822) scale(0.1 -0.1)" d="M357 1010 c-66 -24 -102 -43 -127 -70 -3 -3 -18 -15 -33 -27 -159 -122 -210 -412 -107 -613 99 -194 399 -314 600 -240 30 11 63 20 73 20 68 0 244 181 274 281 38 126 50 225 35 278 -6 20 -18 62 -28 95 -17 59 -65 126 -89 126 -8 0 -48 24 -89 54 -86 62 -176 95 -286 107 -41 4 -91 10 -110 13 -23 3 -61 -5 -113 -24z m285 -149 c87 -19 200 -134 220 -224 25 -107 22 -150 -16 -225 -41 -82 -126 -172 -163 -172 -13 0 -42 -9 -65 -21 -64 -33 -187 -14 -241 36 -126 119 -175 310 -112 435 49 98 148 170 232 170 16 0 35 5 43 10 8 6 26 8 40 5 14 -3 42 -10 62 -14z"/><path fill="#000" transform="translate(1378 1822) scale(0.1 -0.1)" d="M500 1030 c-8 -5 -37 -10 -65 -10 -66 0 -215 -54 -215 -78 0 -4 -23 -32 -51 -62 -67 -72 -73 -81 -103 -172 -35 -103 -38 -286 -6 -348 11 -22 20 -44 20 -50 0 -38 86 -131 165 -179 240 -146 532 -109 699 87 19 22 19 22 -9 52 -40 42 -102 42 -168 0 -78 -49 -125 -70 -157 -70 -17 0 -40 -5 -52 -11 -58 -31 -232 100 -293 221 -68 133 -18 313 111 400 57 38 82 48 178 67 35 7 155 -31 215 -69 61 -38 90 -36 134 9 52 52 40 103 -24 103 -14 0 -45 13 -70 28 -42 26 -75 38 -171 63 -24 6 -57 15 -74 20 -38 11 -45 11 -64 -1z"/><path fill="#000" transform="translate(1518 1820) scale(0.1 -0.1)" d="M407 972 c-15 -15 -27 -34 -27 -40 0 -7 -21 -54 -46 -104 -25 -50 -54 -117 -64 -147 -10 -31 -29 -81 -43 -111 -32 -72 -79 -181 -107 -250 -12 -30 -35 -83 -51 -118 -48 -103 -30 -162 49 -162 69 0 96 29 143 154 33 88 28 86 230 86 205 0 201 2 235 -108 17 -55 47 -109 69 -124 27 -20 109 -8 137 19 34 33 35 41 2 104 -14 28 -38 89 -53 137 -16 48 -40 112 -54 142 -53 118 -87 197 -107 255 -38 104 -45 120 -63 148 -9 14 -17 31 -17 37 0 16 -41 94 -54 102 -33 22 -152 8 -179 -20z"/><path fill="#000" transform="translate(1652 1822) scale(0.1 -0.1)" d="M440 1030 c-8 -5 -27 -10 -41 -10 -60 0 -262 -169 -289 -243 -6 -17 -19 -48 -28 -67 -65 -144 -17 -398 98 -518 36 -38 146 -112 167 -112 8 0 32 -9 54 -21 36 -18 54 -20 157 -16 176 6 238 27 322 109 88 86 88 84 55 118 -45 46 -105 43 -165 -10 -25 -22 -55 -40 -68 -40 -12 0 -41 -9 -64 -21 -44 -22 -41 -22 -154 12 -17 5 -40 9 -51 9 -21 0 -53 29 -53 48 0 6 -22 42 -49 79 -52 72 -60 97 -68 208 -11 150 53 245 199 296 88 30 132 35 182 19 17 -5 42 -12 56 -14 14 -3 51 -21 84 -41 76 -46 87 -43 160 43 23 27 0 62 -41 62 -13 0 -56 17 -96 37 -71 36 -107 46 -237 63 -36 4 -76 11 -90 14 -14 4 -32 2 -40 -4z"/><path fill="#000" transform="translate(1798 1820) scale(0.1 -0.1)" d="M73 988 c-21 -26 -26 -101 -30 -492 -3 -399 -3 -399 24 -428 38 -39 104 -40 145 -1 28 27 28 27 28 459 0 478 4 449 -70 457 -25 2 -54 8 -66 11 -12 5 -25 2 -31 -6z"/><path fill="#000" transform="translate(1870 1820) scale(0.1 -0.1)" d="M427 985 c-10 -9 -20 -28 -23 -43 -4 -15 -27 -67 -51 -116 -25 -49 -53 -115 -63 -145 -10 -31 -33 -90 -53 -131 -226 -485 -232 -510 -121 -510 82 0 117 37 154 160 25 84 52 102 140 95 41 -3 121 -8 177 -11 110 -6 117 -9 140 -70 7 -19 19 -50 27 -71 34 -91 106 -124 186 -85 45 22 48 47 15 112 -14 28 -39 91 -55 140 -16 49 -38 107 -49 129 -11 21 -27 56 -35 78 -8 21 -23 62 -35 91 -12 28 -30 75 -41 102 -11 28 -29 73 -40 100 -11 28 -29 73 -40 101 -25 66 -20 63 -103 70 -40 4 -81 10 -93 14 -14 4 -27 1 -37 -10z"/></svg>